<svg width="355" height="184" viewBox="0 0 355 184" fill="none" xmlns="http://www.w3.org/2000/svg">
<path d="M6.10352e-05 -3.05176e-05H355V183.598H6.10352e-05V-3.05176e-05Z" fill="#2A711F"/>
<mask id="mask0_0_428" style="mask-type:alpha" maskUnits="userSpaceOnUse" x="0" y="0" width="355" height="184">
<path d="M0 0.000228882H355V183.598H0V0.000228882Z" fill="#2A711F"/>
</mask>
<g mask="url(#mask0_0_428)">
<rect x="-4" y="-3.99976" width="28" height="192" fill="#1E6413"/>
<rect x="108" y="-3.99976" width="28" height="192" fill="#1E6413"/>
<rect x="219" y="-3.99976" width="28" height="192" fill="#1E6413"/>
<rect x="52" y="-3.99976" width="28" height="192" fill="#1E6413"/>
<rect x="164" y="-3.99976" width="27" height="192" fill="#1E6413"/>
<rect x="275" y="-3.99976" width="28" height="192" fill="#1E6413"/>
<rect x="331" y="-3.99976" width="28" height="192" fill="#1E6413"/>
<g opacity="0.6">
<rect x="52" y="56.001" width="251" height="72" fill="#CF986C"/>
<rect x="91" y="56.001" width="1" height="72" fill="white"/>
<rect x="72" y="73.001" width="1" height="37" fill="white"/>
<rect x="92" y="73.001" width="1" height="40" transform="rotate(90 92 73.001)" fill="white"/>
<rect x="92" y="109.001" width="1" height="40" transform="rotate(90 92 109.001)" fill="white"/>
<rect width="1" height="72" transform="matrix(-1 0 0 1 264 56.001)" fill="white"/>
<rect width="1" height="37" transform="matrix(-1 0 0 1 283 73.001)" fill="white"/>
<rect width="1" height="40" transform="matrix(4.37114e-08 1 1 -4.37114e-08 263 73.001)" fill="white"/>
<rect width="1" height="40" transform="matrix(4.37114e-08 1 1 -4.37114e-08 263 109.001)" fill="white"/>
</g>
</g>
<g opacity="0.3">
<path d="M1.31014 1.28418L353.69 1.28416L353.69 182.717L1.31015 182.717L1.31014 1.28418ZM0.000175063 0.000976562L0.000185378 184L355 184L355 0.000961045L0.000175063 0.000976562Z" fill="white"/>
<path d="M203 91.8C203 106.163 191.332 117.857 177 117.857C162.668 117.857 151 106.163 151 91.8C151 77.4371 162.668 65.7434 177 65.7434C191.332 65.7434 203 77.4371 203 91.8ZM152.141 91.8C152.141 105.527 163.302 116.586 176.873 116.586C190.571 116.586 201.605 105.4 201.605 91.8C201.605 78.0727 190.444 67.0145 176.873 67.0145C163.302 67.0145 152.141 78.0727 152.141 91.8Z" fill="white"/>
</g>
<circle cx="177" cy="92" r="26" fill="#003152"/>
<circle cx="177" cy="92" r="24" stroke="black" stroke-opacity="0.3" stroke-width="4"/>
<g opacity="0.3" clip-path="url(#clip0_0_428)">
<path d="M157 90.6997C157.097 89.9783 157.185 89.2569 157.302 88.5452C157.897 85.0453 159.34 81.9256 161.611 79.2057C164.663 75.5596 168.543 73.2881 173.203 72.3717C182.289 70.5681 191.599 75.4621 195.304 83.9632C196.571 86.8586 197.117 89.8905 196.971 93.0395C196.561 101.999 189.981 109.778 181.226 111.533C175.045 112.771 169.381 111.523 164.438 107.546C160.558 104.426 158.189 100.371 157.312 95.4572C157.185 94.765 157.107 94.0631 157 93.3514C157 92.474 157 91.5869 157 90.6997ZM164.575 105.635C171.107 111.865 182.708 112.537 190.146 104.933C197.663 97.251 196.581 85.8252 190.585 79.6249C181.928 88.2917 173.261 96.9488 164.575 105.635ZM163.366 104.436C172.052 95.7497 180.719 87.0828 189.386 78.4258C183.176 72.4496 171.75 71.3383 164.039 78.8937C156.532 86.2542 157.068 97.7872 163.366 104.436ZM175.699 99.7857C175.426 99.6005 175.114 99.659 174.87 99.8832C174.47 100.254 174.08 100.644 173.71 101.034C173.388 101.375 173.378 101.853 173.68 102.155C174.002 102.476 174.451 102.476 174.821 102.125C175.192 101.775 175.552 101.424 175.893 101.043C176.03 100.887 176.098 100.673 176.244 100.4C176.059 100.176 175.913 99.932 175.699 99.7857ZM189.63 83.8852C190.137 83.4075 190.653 82.9298 191.112 82.4033C191.336 82.1401 191.209 81.7307 190.946 81.4869C190.683 81.253 190.273 81.1847 190.02 81.4187C189.542 81.8476 189.064 82.3059 188.665 82.8128C188.538 82.9688 188.557 83.349 188.655 83.5635C188.752 83.7682 189.045 83.8949 189.211 84.0217C189.415 83.9534 189.552 83.9534 189.63 83.8852ZM185.915 91.0117C186.344 90.612 186.764 90.2123 187.154 89.7736C187.427 89.4713 187.378 89.0229 187.115 88.7499C186.842 88.4672 186.403 88.4185 186.091 88.6914C185.642 89.0911 185.233 89.5201 184.824 89.949C184.609 90.1733 184.57 90.4852 184.746 90.7387C184.902 90.9434 185.145 91.0897 185.34 91.2554C185.603 91.1482 185.798 91.1189 185.915 91.0117ZM188.031 84.1289C187.758 83.9437 187.427 83.9924 187.173 84.2264C186.793 84.5774 186.422 84.9478 186.062 85.328C185.701 85.7082 185.691 86.1469 186.003 86.4687C186.325 86.8001 186.764 86.8001 187.144 86.4394C187.514 86.0884 187.875 85.7375 188.216 85.3573C188.353 85.211 188.411 85.0063 188.557 84.7528C188.382 84.5384 188.245 84.2751 188.031 84.1289ZM180.515 94.2776C180.066 94.687 179.627 95.116 179.218 95.5644C178.955 95.8569 179.013 96.2761 179.286 96.5588C179.559 96.8318 179.978 96.9098 180.271 96.6563C180.739 96.2469 181.168 95.7984 181.587 95.3402C181.792 95.116 181.821 94.7943 181.636 94.5506C181.489 94.3556 181.246 94.2191 181.06 94.0729C180.817 94.1508 180.622 94.1703 180.515 94.2776ZM179.608 92.5228C179.335 92.3278 179.023 92.4058 178.779 92.6203C178.399 92.9712 178.029 93.3417 177.668 93.7121C177.307 94.0826 177.288 94.5311 177.6 94.8528C177.912 95.1842 178.399 95.1647 178.779 94.804C179.12 94.4823 179.462 94.1606 179.764 93.8096C179.91 93.6439 179.988 93.4197 180.144 93.1467C179.959 92.9225 179.822 92.6787 179.608 92.5228ZM176.8 95.3207C176.527 95.1355 176.215 95.2037 175.971 95.428C175.582 95.7887 175.201 96.1591 174.831 96.5491C174.49 96.9098 174.49 97.3388 174.792 97.6605C175.084 97.9627 175.562 97.9822 175.913 97.6605C176.293 97.3095 176.664 96.939 177.015 96.5588C177.141 96.4126 177.2 96.2079 177.327 95.9349C177.161 95.7204 177.015 95.4767 176.8 95.3207ZM189.679 85.8057C189.406 85.6108 189.094 85.6985 188.85 85.913C188.45 86.2834 188.06 86.6636 187.69 87.0633C187.378 87.4046 187.388 87.853 187.68 88.1455C187.982 88.4477 188.45 88.4574 188.801 88.1357C189.172 87.7945 189.532 87.4338 189.874 87.0633C190.01 86.9074 190.078 86.6929 190.224 86.4199C190.029 86.1957 189.893 85.952 189.679 85.8057ZM172.891 102.603C172.608 102.398 172.286 102.496 172.033 102.72C171.662 103.061 171.302 103.422 170.951 103.783C170.58 104.173 170.571 104.641 170.912 104.953C171.224 105.255 171.692 105.226 172.062 104.875C172.403 104.553 172.735 104.231 173.047 103.88C173.193 103.715 173.271 103.49 173.427 103.217C173.242 103.003 173.105 102.749 172.891 102.603ZM170.161 105.333C169.878 105.128 169.557 105.226 169.303 105.46C168.923 105.811 168.553 106.181 168.192 106.552C167.841 106.922 167.851 107.39 168.172 107.702C168.484 107.994 168.942 107.985 169.293 107.653C169.654 107.312 170.005 106.971 170.337 106.6C170.473 106.444 170.541 106.23 170.688 105.957C170.512 105.733 170.366 105.479 170.161 105.333ZM183.342 91.4504C182.884 91.8696 182.435 92.2985 182.016 92.7665C181.753 93.059 181.821 93.4879 182.094 93.7511C182.367 94.0241 182.786 94.0826 183.088 93.8194C183.546 93.4197 183.966 92.981 184.385 92.5325C184.59 92.3083 184.609 91.9866 184.434 91.7331C184.287 91.5284 184.044 91.4016 183.868 91.2554C183.624 91.3431 183.449 91.3529 183.342 91.4504ZM173.232 98.1869C172.784 98.6061 172.345 99.0253 171.935 99.4835C171.682 99.7565 171.74 100.176 171.984 100.449C172.238 100.731 172.667 100.819 172.969 100.566C173.447 100.146 173.905 99.698 174.304 99.2106C174.431 99.0448 174.431 98.6744 174.334 98.4599C174.246 98.2454 173.963 98.1284 173.778 97.9724C173.534 98.0602 173.349 98.0894 173.232 98.1869ZM191.336 85.5425C191.823 85.0843 192.311 84.6164 192.759 84.1192C192.983 83.8657 192.876 83.4367 192.632 83.2028C192.369 82.9493 191.979 82.8713 191.706 83.1053C191.219 83.5342 190.751 83.9827 190.341 84.4799C190.215 84.6359 190.224 85.0161 190.322 85.2305C190.419 85.4353 190.702 85.562 190.868 85.6887C191.092 85.6205 191.248 85.6205 191.336 85.5425ZM183.41 89.4226C183.741 89.5981 184.053 89.5201 184.307 89.2764C184.687 88.9254 185.058 88.5549 185.408 88.1747C185.74 87.814 185.73 87.3656 185.418 87.0536C185.106 86.7514 184.648 86.7611 184.297 87.0828C183.927 87.4241 183.566 87.7848 183.225 88.165C183.098 88.3015 183.039 88.4964 182.991 88.5744C182.981 89.0131 183.117 89.2666 183.41 89.4226ZM168.494 103.666C168.221 103.481 167.89 103.529 167.636 103.763C167.256 104.114 166.885 104.485 166.525 104.865C166.174 105.235 166.174 105.703 166.486 106.015C166.807 106.337 167.256 106.318 167.636 105.957C167.987 105.625 168.328 105.294 168.65 104.933C168.786 104.777 168.864 104.563 169.02 104.29C168.845 104.075 168.709 103.812 168.494 103.666ZM176.703 99.4835C176.985 99.6883 177.317 99.6005 177.561 99.3763C177.96 99.0058 178.35 98.6256 178.721 98.2259C179.033 97.8749 179.013 97.4362 178.701 97.1438C178.399 96.8513 177.951 96.8416 177.619 97.1535C177.239 97.5045 176.868 97.8749 176.517 98.2552C176.391 98.4014 176.322 98.6061 176.186 98.8693C176.361 99.0741 176.498 99.3275 176.703 99.4835ZM171.214 100.936C170.931 100.741 170.6 100.809 170.356 101.043C169.995 101.375 169.644 101.736 169.303 102.087C168.923 102.486 168.894 102.925 169.225 103.256C169.557 103.598 170.005 103.578 170.395 103.198C170.727 102.886 171.058 102.564 171.36 102.233C171.506 102.067 171.594 101.843 171.76 101.57C171.565 101.346 171.428 101.092 171.214 100.936ZM180.631 92.2108C180.934 92.4155 181.265 92.2985 181.519 92.0646C181.879 91.7331 182.23 91.3724 182.572 91.0214C182.932 90.6412 182.942 90.1928 182.611 89.871C182.299 89.5591 181.831 89.5688 181.46 89.9198C181.109 90.2513 180.768 90.5827 180.446 90.9434C180.31 91.0994 180.232 91.3139 180.086 91.5771C180.281 91.8111 180.417 92.0646 180.631 92.2108ZM173.339 91.8501C173.076 91.6649 172.754 91.7136 172.511 91.9378C172.111 92.3083 171.721 92.6885 171.341 93.0785C171 93.4392 171 93.8779 171.311 94.1898C171.633 94.5213 172.082 94.5213 172.452 94.1606C172.813 93.8194 173.164 93.4782 173.495 93.1077C173.632 92.9517 173.71 92.7372 173.856 92.4643C173.69 92.2595 173.554 92.0061 173.339 91.8501ZM167.753 97.4362C167.47 97.2413 167.149 97.2998 166.895 97.5337C166.515 97.8847 166.145 98.2552 165.784 98.6354C165.433 99.0058 165.413 99.464 165.716 99.7857C166.037 100.117 166.515 100.098 166.895 99.737C167.236 99.4153 167.568 99.0838 167.88 98.7426C168.026 98.5769 168.114 98.3624 168.28 98.0894C168.094 97.8457 167.968 97.5825 167.753 97.4362ZM184.531 80.6485C184.258 80.4535 183.946 80.5218 183.702 80.7363C183.303 81.1067 182.913 81.4869 182.533 81.8866C182.201 82.2279 182.211 82.7056 182.513 83.0078C182.825 83.3295 183.293 83.3197 183.663 82.9688C184.014 82.6373 184.356 82.3059 184.677 81.9451C184.824 81.7794 184.911 81.5649 185.067 81.2822C184.882 81.0482 184.736 80.8045 184.531 80.6485ZM164.887 98.2747C165.413 97.7775 165.959 97.29 166.417 96.7441C166.642 96.4808 166.495 96.1201 166.232 95.8667C165.989 95.6327 165.56 95.5839 165.296 95.8082C164.828 96.2176 164.39 96.6661 163.971 97.1243C163.756 97.3485 163.737 97.6702 163.932 97.9237C164.087 98.1284 164.321 98.2552 164.487 98.3819C164.692 98.3234 164.819 98.3331 164.887 98.2747ZM163.317 98.5086C163.093 98.4209 162.723 98.4501 162.537 98.5866C162.108 98.9083 161.728 99.3178 161.358 99.7078C160.997 100.088 160.997 100.517 161.329 100.848C161.65 101.17 162.099 101.16 162.469 100.8C162.82 100.468 163.161 100.137 163.483 99.776C163.629 99.6103 163.717 99.386 163.863 99.1131C163.668 98.8986 163.532 98.5964 163.317 98.5086ZM182.835 78.9815C182.611 78.8937 182.24 78.9327 182.055 79.0692C181.636 79.3714 181.285 79.7711 180.924 80.1416C180.534 80.5413 180.515 80.98 180.846 81.3115C181.177 81.6527 181.616 81.6332 182.026 81.253C182.367 80.9312 182.708 80.6095 183.02 80.2586C183.166 80.0928 183.254 79.8686 183.4 79.5956C183.195 79.3617 183.059 79.0692 182.835 78.9815ZM171.672 90.1928C171.448 90.105 171.078 90.105 170.892 90.2415C170.463 90.5535 170.103 90.9532 169.732 91.3334C169.352 91.7234 169.323 92.1718 169.654 92.5033C169.966 92.825 170.444 92.8152 170.834 92.4448C171.175 92.1231 171.516 91.8013 171.818 91.4504C171.965 91.2846 172.043 91.0604 172.189 90.7874C172.004 90.5632 171.887 90.2708 171.672 90.1928ZM185.574 76.2225C185.321 76.0568 185.009 76.0958 184.775 76.3102C184.395 76.6612 184.024 77.0219 183.654 77.3924C183.264 77.7921 183.244 78.2308 183.576 78.5622C183.907 78.8937 184.346 78.884 184.755 78.494C185.097 78.1723 185.438 77.8506 185.75 77.4996C185.896 77.3339 185.974 77.1097 186.13 76.8367C185.935 76.6222 185.789 76.3687 185.574 76.2225ZM186.247 80.3366C186.695 79.9076 187.154 79.4787 187.563 79.0107C187.807 78.728 187.748 78.3088 187.495 78.0553C187.232 77.7823 186.803 77.7043 186.51 77.9676C186.042 78.377 185.594 78.8157 185.204 79.2934C185.067 79.4592 185.058 79.8394 185.155 80.0441C185.252 80.2586 185.545 80.3951 185.74 80.551C185.964 80.4535 186.14 80.434 186.247 80.3366ZM163.912 102.642C164.399 102.174 164.897 101.716 165.326 101.209C165.56 100.936 165.452 100.585 165.209 100.322C164.965 100.059 164.555 99.971 164.282 100.195C163.785 100.624 163.298 101.092 162.888 101.599C162.762 101.755 162.781 102.145 162.888 102.35C162.986 102.554 163.278 102.671 163.444 102.798C163.678 102.73 163.834 102.72 163.912 102.642ZM181.733 83.4465C181.47 83.2612 181.148 83.31 180.904 83.5342C180.515 83.8949 180.134 84.2654 179.764 84.6554C179.413 85.0356 179.413 85.4938 179.735 85.8057C180.047 86.1079 180.515 86.0982 180.885 85.7472C181.236 85.4158 181.577 85.0843 181.899 84.7236C182.035 84.5676 182.113 84.3531 182.26 84.0899C182.074 83.8559 181.948 83.6025 181.733 83.4465ZM176.147 89.0521C175.884 88.8669 175.562 88.9059 175.318 89.1301C174.928 89.4908 174.538 89.8613 174.178 90.2415C173.827 90.612 173.827 91.0799 174.139 91.3919C174.46 91.7136 174.899 91.7039 175.289 91.3431C175.64 91.0117 175.981 90.6802 176.303 90.3195C176.439 90.1635 176.517 89.949 176.664 89.6761C176.488 89.4616 176.361 89.1984 176.147 89.0521ZM180.056 81.7794C179.783 81.5747 179.452 81.6429 179.198 81.8769C178.828 82.2181 178.467 82.5788 178.116 82.9395C177.746 83.3295 177.717 83.7877 178.048 84.1192C178.37 84.4409 178.838 84.4214 179.228 84.0509C179.559 83.7389 179.881 83.4172 180.183 83.0858C180.329 82.92 180.427 82.6958 180.583 82.4326C180.407 82.1986 180.271 81.9354 180.056 81.7794ZM175.474 87.0536C175.777 87.2486 176.108 87.1511 176.361 86.9074C176.722 86.5661 177.073 86.2152 177.414 85.8642C177.775 85.484 177.795 85.0453 177.473 84.7138C177.141 84.3726 176.703 84.3824 176.303 84.7626C175.962 85.0843 175.621 85.406 175.309 85.757C175.162 85.9227 175.084 86.1469 174.928 86.4199C175.123 86.6539 175.26 86.9074 175.474 87.0536ZM173.447 89.7833C173.895 89.3738 174.334 88.9449 174.733 88.4964C174.997 88.1942 174.928 87.775 174.665 87.5118C174.392 87.2388 173.983 87.1706 173.68 87.4436C173.222 87.8433 172.774 88.2625 172.403 88.7402C172.267 88.9156 172.257 89.2959 172.345 89.5201C172.423 89.7248 172.715 89.8515 172.901 90.0075C173.144 89.91 173.33 89.8808 173.447 89.7833ZM168.104 93.0102C167.646 93.4489 167.178 93.8779 166.759 94.3556C166.515 94.6383 166.593 95.0477 166.856 95.311C167.119 95.5742 167.509 95.6522 167.812 95.3987C168.289 94.9893 168.757 94.5408 169.147 94.0534C169.274 93.8876 169.274 93.5074 169.176 93.3027C169.069 93.0882 168.777 92.9615 168.582 92.8152C168.358 92.903 168.192 92.9225 168.104 93.0102ZM168.748 97.1243C169.03 97.3095 169.362 97.2413 169.605 97.0073C169.976 96.6661 170.337 96.3054 170.688 95.9447C171.048 95.5644 171.068 95.1257 170.756 94.7943C170.424 94.4531 169.986 94.4628 169.586 94.843C169.245 95.1647 168.913 95.4865 168.601 95.8374C168.455 96.0031 168.377 96.2274 168.221 96.5003C168.406 96.7246 168.533 96.978 168.748 97.1243ZM178.223 86.2639C177.746 86.7221 177.258 87.1706 176.829 87.658C176.595 87.9213 176.683 88.321 176.927 88.5744C177.19 88.8474 177.59 88.9254 177.873 88.6817C178.36 88.2625 178.828 87.8043 179.228 87.3071C179.354 87.1511 179.335 86.7709 179.237 86.5564C179.14 86.3517 178.857 86.2347 178.682 86.1079C178.467 86.1762 178.311 86.1762 178.223 86.2639Z" fill="black"/>
</g>
<path d="M161.816 110.551C161.107 111.417 161.23 112.702 162.149 113.341C165.091 115.388 168.43 116.81 171.961 117.507C176.155 118.336 180.49 118.117 184.58 116.871C188.67 115.624 192.389 113.388 195.409 110.361C198.428 107.334 200.654 103.608 201.89 99.5153C203.126 95.4221 203.333 91.0872 202.494 86.8947C201.654 82.7022 199.794 78.7815 197.077 75.4798C194.36 72.1782 190.871 69.5975 186.919 67.9663C183.592 66.5936 180.024 65.929 176.441 66.006C175.322 66.0301 174.508 67.0317 174.619 68.1458C174.731 69.2599 175.725 70.0631 176.844 70.0552C179.762 70.0345 182.662 70.596 185.372 71.7143C188.708 73.0911 191.653 75.2693 193.946 78.0561C196.239 80.8429 197.81 84.1522 198.518 87.6909C199.227 91.2296 199.052 94.8884 198.009 98.3433C196.966 101.798 195.086 104.943 192.538 107.498C189.989 110.053 186.85 111.94 183.398 112.992C179.945 114.044 176.287 114.229 172.746 113.529C169.871 112.961 167.145 111.824 164.726 110.192C163.798 109.566 162.525 109.684 161.816 110.551Z" fill="#00B1DB"/>
<path d="M163.126 95.9375V95.0735C163.126 94.3535 163.254 93.6975 163.51 93.1055C163.766 92.5135 164.118 91.9695 164.566 91.4735C165.014 90.9775 165.51 90.5055 166.054 90.0575C166.598 89.6095 167.158 89.1775 167.734 88.7615C168.39 88.2655 169.006 87.7775 169.582 87.2975C170.174 86.8175 170.654 86.3055 171.022 85.7615C171.39 85.2015 171.574 84.5855 171.574 83.9135C171.574 83.5935 171.494 83.2735 171.334 82.9535C171.174 82.6335 170.918 82.3695 170.566 82.1615C170.23 81.9375 169.774 81.8255 169.198 81.8255C168.606 81.8255 168.118 81.9295 167.734 82.1375C167.35 82.3295 167.054 82.6095 166.846 82.9775C166.654 83.3295 166.558 83.7695 166.558 84.2975V85.1615H163.342C163.326 85.0815 163.31 84.9695 163.294 84.8255C163.278 84.6815 163.27 84.5055 163.27 84.2975C163.27 83.1295 163.534 82.1695 164.062 81.4175C164.606 80.6655 165.334 80.1055 166.246 79.7375C167.174 79.3695 168.222 79.1855 169.39 79.1855C170.446 79.1855 171.326 79.3375 172.03 79.6415C172.75 79.9295 173.326 80.3215 173.758 80.8175C174.19 81.2975 174.494 81.8255 174.67 82.4015C174.862 82.9615 174.958 83.5055 174.958 84.0335C174.958 84.7855 174.822 85.4735 174.55 86.0975C174.278 86.7215 173.91 87.3055 173.446 87.8495C172.982 88.3935 172.43 88.9215 171.79 89.4335C171.15 89.9295 170.47 90.4255 169.75 90.9215C169.382 91.1775 169.03 91.4255 168.694 91.6655C168.374 91.9055 168.094 92.1375 167.854 92.3615C167.63 92.5695 167.454 92.7775 167.326 92.9855H175.078V95.9375H163.126ZM183.135 96.2255C181.919 96.2255 180.903 96.0015 180.087 95.5535C179.287 95.1055 178.687 94.4895 178.287 93.7055C177.887 92.9215 177.687 92.0175 177.687 90.9935H180.951C180.951 91.5535 181.031 92.0335 181.191 92.4335C181.351 92.8335 181.599 93.1375 181.935 93.3455C182.271 93.5375 182.695 93.6335 183.207 93.6335C183.959 93.6335 184.527 93.4415 184.911 93.0575C185.295 92.6575 185.551 92.0815 185.679 91.3295C185.823 90.5615 185.903 89.6495 185.919 88.5935C185.775 88.7535 185.535 88.9455 185.199 89.1695C184.879 89.3935 184.471 89.5935 183.975 89.7695C183.495 89.9295 182.959 90.0095 182.367 90.0095C181.231 90.0095 180.279 89.7855 179.511 89.3375C178.743 88.8895 178.159 88.2575 177.759 87.4415C177.375 86.6255 177.183 85.7055 177.183 84.6815C177.183 83.5295 177.431 82.5455 177.927 81.7295C178.423 80.9135 179.111 80.2895 179.991 79.8575C180.871 79.4095 181.879 79.1855 183.015 79.1855C184.023 79.1855 184.919 79.3295 185.703 79.6175C186.487 79.8895 187.143 80.3375 187.671 80.9615C188.215 81.5855 188.623 82.4175 188.895 83.4575C189.183 84.4815 189.327 85.7375 189.327 87.2255C189.327 88.9055 189.191 90.3215 188.919 91.4735C188.647 92.6255 188.247 93.5535 187.719 94.2575C187.207 94.9455 186.559 95.4495 185.775 95.7695C185.007 96.0735 184.127 96.2255 183.135 96.2255ZM183.135 87.5615C183.727 87.5615 184.215 87.4415 184.599 87.2015C184.999 86.9455 185.287 86.6015 185.463 86.1695C185.655 85.7215 185.751 85.2175 185.751 84.6575C185.751 84.0815 185.655 83.5775 185.463 83.1455C185.287 82.7135 184.999 82.3775 184.599 82.1375C184.215 81.8815 183.727 81.7535 183.135 81.7535C182.559 81.7535 182.079 81.8815 181.695 82.1375C181.311 82.3935 181.023 82.7375 180.831 83.1695C180.639 83.6015 180.543 84.0975 180.543 84.6575C180.543 85.2335 180.639 85.7375 180.831 86.1695C181.023 86.6015 181.311 86.9455 181.695 87.2015C182.079 87.4415 182.559 87.5615 183.135 87.5615Z" fill="white"/>
<path d="M172.644 106.202C172.405 106.202 172.175 106.176 171.953 106.125C171.731 106.078 171.535 106.001 171.364 105.895C171.193 105.784 171.059 105.645 170.961 105.479C170.863 105.308 170.814 105.105 170.814 104.871C170.814 104.845 170.814 104.822 170.814 104.8C170.818 104.775 170.82 104.753 170.82 104.736H171.537C171.537 104.749 171.535 104.768 171.53 104.794C171.53 104.819 171.53 104.841 171.53 104.858C171.53 105.016 171.577 105.15 171.671 105.261C171.765 105.372 171.895 105.455 172.062 105.511C172.232 105.566 172.426 105.594 172.644 105.594C172.763 105.594 172.879 105.587 172.99 105.575C173.101 105.558 173.201 105.534 173.29 105.504C173.384 105.47 173.465 105.43 173.534 105.383C173.602 105.331 173.655 105.272 173.694 105.203C173.732 105.135 173.751 105.056 173.751 104.967C173.751 104.83 173.711 104.717 173.63 104.627C173.553 104.538 173.446 104.463 173.31 104.403C173.177 104.344 173.026 104.29 172.855 104.243C172.689 104.197 172.516 104.15 172.337 104.103C172.158 104.056 171.983 104 171.812 103.936C171.646 103.872 171.494 103.795 171.358 103.706C171.225 103.612 171.119 103.497 171.038 103.36C170.961 103.219 170.922 103.049 170.922 102.848C170.922 102.656 170.963 102.486 171.044 102.336C171.125 102.187 171.242 102.063 171.396 101.965C171.55 101.863 171.733 101.786 171.946 101.735C172.16 101.683 172.401 101.658 172.67 101.658C172.9 101.658 173.118 101.683 173.322 101.735C173.527 101.782 173.706 101.856 173.86 101.959C174.014 102.061 174.133 102.191 174.218 102.349C174.308 102.507 174.353 102.695 174.353 102.912V102.989H173.642V102.906C173.642 102.769 173.602 102.654 173.521 102.56C173.44 102.466 173.327 102.394 173.182 102.343C173.037 102.291 172.868 102.266 172.676 102.266C172.45 102.266 172.26 102.289 172.106 102.336C171.953 102.379 171.835 102.441 171.754 102.522C171.678 102.599 171.639 102.693 171.639 102.803C171.639 102.927 171.68 103.03 171.761 103.111C171.842 103.187 171.949 103.254 172.081 103.309C172.217 103.365 172.369 103.416 172.535 103.463C172.706 103.505 172.879 103.552 173.054 103.603C173.233 103.65 173.406 103.706 173.572 103.77C173.743 103.834 173.894 103.913 174.026 104.007C174.163 104.101 174.272 104.218 174.353 104.359C174.434 104.495 174.474 104.664 174.474 104.864C174.474 105.18 174.395 105.438 174.238 105.639C174.08 105.835 173.862 105.978 173.585 106.067C173.312 106.157 172.998 106.202 172.644 106.202ZM176.612 106.202C176.266 106.202 175.976 106.14 175.741 106.016C175.511 105.888 175.336 105.694 175.216 105.434C175.097 105.174 175.037 104.843 175.037 104.442C175.037 104.037 175.097 103.706 175.216 103.45C175.336 103.19 175.513 102.998 175.747 102.874C175.982 102.746 176.274 102.682 176.624 102.682C176.944 102.682 177.211 102.744 177.424 102.867C177.642 102.987 177.806 103.17 177.917 103.418C178.028 103.665 178.084 103.977 178.084 104.352V104.608H175.722C175.73 104.847 175.767 105.048 175.831 105.21C175.895 105.368 175.991 105.485 176.119 105.562C176.251 105.634 176.417 105.671 176.618 105.671C176.742 105.671 176.853 105.656 176.951 105.626C177.049 105.592 177.132 105.545 177.2 105.485C177.269 105.421 177.322 105.346 177.36 105.261C177.399 105.171 177.418 105.071 177.418 104.96H178.071C178.071 105.161 178.037 105.338 177.968 105.491C177.9 105.645 177.8 105.775 177.668 105.882C177.54 105.984 177.386 106.063 177.207 106.119C177.028 106.174 176.829 106.202 176.612 106.202ZM175.735 104.122H177.386C177.386 103.955 177.367 103.817 177.328 103.706C177.294 103.591 177.243 103.497 177.175 103.424C177.106 103.352 177.025 103.301 176.931 103.271C176.838 103.237 176.731 103.219 176.612 103.219C176.432 103.219 176.279 103.251 176.151 103.315C176.027 103.379 175.931 103.48 175.863 103.616C175.794 103.749 175.752 103.917 175.735 104.122ZM180.098 106.202C179.761 106.202 179.479 106.14 179.253 106.016C179.027 105.888 178.856 105.694 178.741 105.434C178.63 105.174 178.574 104.843 178.574 104.442C178.574 104.041 178.632 103.712 178.747 103.456C178.862 103.196 179.033 103.002 179.259 102.874C179.49 102.746 179.771 102.682 180.104 102.682C180.334 102.682 180.535 102.712 180.706 102.771C180.876 102.827 181.021 102.912 181.141 103.027C181.26 103.138 181.348 103.277 181.403 103.443C181.463 103.61 181.493 103.8 181.493 104.013H180.821C180.821 103.834 180.795 103.687 180.744 103.571C180.693 103.456 180.614 103.371 180.507 103.315C180.401 103.256 180.262 103.226 180.091 103.226C179.912 103.226 179.761 103.269 179.637 103.354C179.513 103.435 179.419 103.561 179.355 103.731C179.291 103.898 179.259 104.118 179.259 104.391V104.499C179.259 104.76 179.289 104.977 179.349 105.152C179.413 105.323 179.507 105.451 179.63 105.536C179.758 105.617 179.921 105.658 180.117 105.658C180.288 105.658 180.424 105.628 180.526 105.568C180.633 105.504 180.712 105.415 180.763 105.299C180.819 105.18 180.846 105.037 180.846 104.871H181.493C181.493 105.071 181.463 105.253 181.403 105.415C181.348 105.577 181.26 105.718 181.141 105.837C181.026 105.952 180.881 106.042 180.706 106.106C180.531 106.17 180.328 106.202 180.098 106.202Z" fill="white"/>
<defs>
<clipPath id="clip0_0_428">
<rect width="40" height="40" fill="white" transform="translate(157 72.001)"/>
</clipPath>
</defs>
</svg>
