<svg width="46" height="53" viewBox="0 0 46 53" fill="none" xmlns="http://www.w3.org/2000/svg">
<rect width="46" height="53" rx="5" fill="white"/>
<rect x="2.5" y="2.5" width="41" height="48" rx="4.5" fill="white" stroke="#00B1DB"/>
<circle cx="23.5" cy="26.5" r="12.5" fill="#00B1DB"/>
<path d="M21.8 29.92V28.98C21.8 28.5 21.8733 28.0933 22.02 27.76C22.18 27.4133 22.3733 27.1133 22.6 26.86C22.84 26.5933 23.0933 26.36 23.36 26.16C23.6267 25.9467 23.8733 25.74 24.1 25.54C24.34 25.3267 24.5333 25.0933 24.68 24.84C24.84 24.5867 24.92 24.3 24.92 23.98C24.92 23.8333 24.9 23.6667 24.86 23.48C24.82 23.2933 24.7333 23.1133 24.6 22.94C24.48 22.7533 24.2933 22.6067 24.04 22.5C23.7867 22.38 23.4533 22.32 23.04 22.32C22.5867 22.32 22.22 22.3867 21.94 22.52C21.6733 22.6533 21.4667 22.8267 21.32 23.04C21.1867 23.24 21.0933 23.4533 21.04 23.68C21 23.9067 20.98 24.12 20.98 24.32C20.98 24.4133 20.98 24.5067 20.98 24.6C20.98 24.68 20.9867 24.7667 21 24.86H18.26C18.2467 24.78 18.2267 24.68 18.2 24.56C18.1867 24.44 18.18 24.3 18.18 24.14C18.18 23.6733 18.2467 23.2333 18.38 22.82C18.5267 22.4067 18.7333 22.0333 19 21.7C19.28 21.3533 19.6267 21.06 20.04 20.82C20.4533 20.5667 20.9267 20.3733 21.46 20.24C21.9933 20.1067 22.5867 20.04 23.24 20.04C23.8 20.04 24.32 20.0933 24.8 20.2C25.2933 20.2933 25.7267 20.4467 26.1 20.66C26.4867 20.86 26.8133 21.1067 27.08 21.4C27.3467 21.6933 27.5533 22.0333 27.7 22.42C27.8467 22.8067 27.92 23.2333 27.92 23.7C27.92 24.2867 27.8333 24.7867 27.66 25.2C27.4867 25.6 27.26 25.9533 26.98 26.26C26.7133 26.5533 26.4267 26.8133 26.12 27.04C25.8133 27.2667 25.52 27.4933 25.24 27.72C24.9733 27.9333 24.7533 28.1667 24.58 28.42C24.4067 28.6733 24.32 28.98 24.32 29.34V29.92H21.8ZM21.64 34V31.2H24.48V34H21.64Z" fill="white"/>
</svg>
